<svg xmlns="http://www.w3.org/2000/svg" viewBox="0 0 64 64" width="100" height="100" style="fill: rgb(1, 147, 207);">
    <path d="M 25 0 C 11.215 0 0 11.215 0 25 C 0 38.785 11.215 50 25 50 C 30.514 50 35.613953 48.202016 39.751953 45.166016 C 39.751953 45.166016 42.527109 47.885594 42.662109 47.933594 C 42.662109 47.955594 42.65625 47.977 42.65625 48 C 42.65625 49.336 43.177094 50.592156 44.121094 51.535156 L 54.464844 61.878906 C 55.439844 62.853906 56.72 63.339844 58 63.339844 C 59.281 63.339844 60.562109 62.853906 61.537109 61.878906 L 61.880859 61.533203 C 62.824859 60.589203 63.34375 59.335 63.34375 58 C 63.34275 56.664 62.823906 55.407844 61.878906 54.464844 L 51.535156 44.121094 C 50.544156 43.130094 49.238547 42.649016 47.935547 42.666016 C 47.887547 42.530016 45.166016 39.751953 45.166016 39.751953 C 48.202016 35.613953 50 30.514 50 25 C 50 11.215 38.785 0 25 0 z M 25 2 C 37.682 2 48 12.317 48 25 C 48 37.683 37.682 48 25 48 C 12.318 48 2 37.683 2 25 C 2 12.317 12.318 2 25 2 z M 25 6 C 19.925 6 15.153453 7.9764531 11.564453 11.564453 C 4.1564531 18.972453 4.1564531 31.025594 11.564453 38.433594 C 15.153453 42.022594 19.925 44 25 44 C 30.075 44 34.846547 42.023547 38.435547 38.435547 C 45.843547 31.026547 45.843547 18.973453 38.435547 11.564453 C 34.846547 7.9764531 30.075 6 25 6 z M 25 8 C 29.541 8 33.810484 9.7685156 37.021484 12.978516 C 43.649484 19.606516 43.649484 30.393484 37.021484 37.021484 C 33.810484 40.231484 29.541 42 25 42 C 20.459 42 16.189516 40.231484 12.978516 37.021484 C 6.3505156 30.393484 6.3505156 19.608469 12.978516 12.980469 C 16.189516 9.7694687 20.459 8 25 8 z M 24.808594 11 C 21.173789 11.044775 17.702734 12.497359 15.099609 15.099609 C 14.708609 15.490609 14.708609 16.122672 15.099609 16.513672 C 15.294609 16.708672 15.550641 16.806641 15.806641 16.806641 C 16.062641 16.806641 16.318672 16.708672 16.513672 16.513672 C 19.062672 13.963672 22.583688 12.701641 26.179688 13.056641 C 26.731687 13.103641 27.219437 12.709156 27.273438 12.160156 C 27.327438 11.610156 26.925 11.120406 26.375 11.066406 C 25.851125 11.014531 25.327852 10.993604 24.808594 11 z M 31.861328 12.876953 C 31.475453 12.821125 31.075078 12.996062 30.861328 13.351562 C 30.575328 13.823562 30.728172 14.438609 31.201172 14.724609 C 32.025172 15.221609 32.792375 15.824625 33.484375 16.515625 C 33.679375 16.710625 33.935406 16.808594 34.191406 16.808594 C 34.447406 16.808594 34.704391 16.710625 34.900391 16.515625 C 35.290391 16.124625 35.290391 15.491563 34.900391 15.101562 C 34.093391 14.295563 33.196375 13.592719 32.234375 13.011719 C 32.116125 12.939969 31.989953 12.895563 31.861328 12.876953 z M 11 24 C 10.448 24 10 24.447 10 25 C 10 25.553 10.448 26 11 26 L 13 26 C 13.552 26 14 25.553 14 25 C 14 24.447 13.552 24 13 24 L 11 24 z M 37 24 C 36.448 24 36 24.447 36 25 C 36 25.553 36.448 26 37 26 L 39 26 C 39.552 26 40 25.553 40 25 C 40 24.447 39.552 24 39 24 L 37 24 z M 13.890625 28.494141 C 13.760641 28.492 13.626547 28.516609 13.498047 28.568359 L 11.644531 29.316406 C 11.132531 29.522406 10.884797 30.105188 11.091797 30.617188 C 11.248797 31.007188 11.623531 31.244141 12.019531 31.244141 C 12.144531 31.244141 12.271531 31.221875 12.394531 31.171875 L 14.248047 30.421875 C 14.761047 30.215875 15.007781 29.633094 14.800781 29.121094 C 14.645531 28.737094 14.280578 28.500562 13.890625 28.494141 z M 36.046875 28.6875 C 35.656922 28.686422 35.287 28.917828 35.125 29.298828 C 34.909 29.806828 35.146297 30.393375 35.654297 30.609375 L 37.494141 31.390625 C 37.622141 31.445625 37.755719 31.470703 37.886719 31.470703 C 38.275719 31.470703 38.644641 31.241328 38.806641 30.861328 C 39.022641 30.353328 38.786344 29.766781 38.277344 29.550781 L 36.4375 28.769531 C 36.31025 28.714781 36.176859 28.687859 36.046875 28.6875 z M 16.513672 32.484375 C 16.257797 32.4845 16.003594 32.582344 15.808594 32.777344 L 14.394531 34.191406 C 14.003531 34.582406 14.003531 35.214469 14.394531 35.605469 C 14.589531 35.800469 14.845562 35.898438 15.101562 35.898438 C 15.357563 35.898438 15.613594 35.800469 15.808594 35.605469 L 17.222656 34.191406 C 17.613656 33.800406 17.613656 33.168344 17.222656 32.777344 C 17.027156 32.581844 16.769547 32.48425 16.513672 32.484375 z M 33.484375 32.484375 C 33.228625 32.484375 32.972844 32.581844 32.777344 32.777344 C 32.386344 33.168344 32.386344 33.800406 32.777344 34.191406 L 34.191406 35.605469 C 34.386406 35.800469 34.642437 35.898438 34.898438 35.898438 C 35.154438 35.898438 35.410469 35.800469 35.605469 35.605469 C 35.996469 35.214469 35.996469 34.582406 35.605469 34.191406 L 34.191406 32.777344 C 33.995906 32.581844 33.740125 32.484375 33.484375 32.484375 z M 20.3125 35.046875 C 19.922969 35.046781 19.552625 35.273297 19.390625 35.654297 L 18.609375 37.496094 C 18.393375 38.005094 18.631625 38.592594 19.140625 38.808594 C 19.267625 38.862594 19.399297 38.886719 19.529297 38.886719 C 19.918297 38.886719 20.289172 38.657344 20.451172 38.277344 L 21.232422 36.4375 C 21.447422 35.9285 21.209172 35.341 20.701172 35.125 C 20.574172 35.0715 20.442344 35.046906 20.3125 35.046875 z M 29.511719 35.126953 C 29.381781 35.124828 29.247391 35.147469 29.119141 35.199219 C 28.607141 35.406219 28.359406 35.988953 28.566406 36.501953 L 29.316406 38.355469 C 29.473406 38.744469 29.848141 38.980469 30.244141 38.980469 C 30.369141 38.980469 30.496141 38.95625 30.619141 38.90625 C 31.131141 38.69925 31.378875 38.118469 31.171875 37.605469 L 30.421875 35.751953 C 30.266625 35.368703 29.901531 35.133328 29.511719 35.126953 z M 25 36 C 24.448 36 24 36.447 24 37 L 24 39 C 24 39.553 24.448 40 25 40 C 25.552 40 26 39.553 26 39 L 26 37 C 26 36.447 25.552 36 25 36 z M 43.910156 41.324219 L 45.787109 43.201172 C 45.312109 43.436172 44.859844 43.729047 44.464844 44.123047 L 44.121094 44.464844 C 43.732094 44.853844 43.436266 45.305203 43.197266 45.783203 L 41.324219 43.910156 C 42.248219 43.112156 43.112156 42.248219 43.910156 41.324219 z M 48.001953 44.658203 C 48.770953 44.658203 49.538047 44.951156 50.123047 45.535156 L 60.466797 55.878906 C 61.033797 56.444906 61.345703 57.198 61.345703 58 C 61.345703 58.802 61.031844 59.555094 60.464844 60.121094 L 60.121094 60.464844 C 58.951094 61.632844 57.048906 61.632844 55.878906 60.464844 L 45.535156 50.121094 C 44.968156 49.555094 44.65625 48.802 44.65625 48 C 44.65625 47.198 44.969109 46.445906 45.537109 45.878906 L 45.878906 45.535156 C 46.463906 44.951156 47.232953 44.658203 48.001953 44.658203 z"/>
</svg>