<svg xmlns="http://www.w3.org/2000/svg" viewBox="0 0 64 64" width="100" height="100" style="fill: rgb(1, 147, 207);">
    <path d="M 32 0 C 31.447 0 31 0.448 31 1 L 31 7 C 31 7.552 31.447 8 32 8 C 32.553 8 33 7.552 33 7 L 33 1 C 33 0.448 32.553 0 32 0 z M 21.152344 4.1132812 C 21.022359 4.111125 20.890219 4.1342969 20.761719 4.1855469 C 20.249719 4.3925469 20.003937 4.9743281 20.210938 5.4863281 L 21.707031 9.1953125 C 21.864031 9.5853125 22.238766 9.8203125 22.634766 9.8203125 C 22.759766 9.8203125 22.886766 9.7970469 23.009766 9.7480469 C 23.521766 9.5410469 23.7695 8.9573125 23.5625 8.4453125 L 22.064453 4.7382812 C 21.909203 4.3535312 21.542297 4.11975 21.152344 4.1132812 z M 42.847656 4.1132812 C 42.457984 4.1199844 42.090797 4.3542812 41.935547 4.7382812 L 40.4375 8.4453125 C 40.2305 8.9573125 40.479234 9.5410469 40.990234 9.7480469 C 41.113234 9.7970469 41.240234 9.8203125 41.365234 9.8203125 C 41.761234 9.8203125 42.135969 9.5843125 42.292969 9.1953125 L 43.789062 5.4863281 C 43.996063 4.9743281 43.750281 4.3925469 43.238281 4.1855469 C 43.110281 4.1342969 42.977547 4.1110469 42.847656 4.1132812 z M 10.080078 9.078125 C 9.8243281 9.078125 9.5685469 9.1755937 9.3730469 9.3710938 C 8.9820469 9.7620938 8.9820469 10.394156 9.3730469 10.785156 L 13.615234 15.029297 C 13.810234 15.224297 14.066266 15.322266 14.322266 15.322266 C 14.578266 15.322266 14.834297 15.224297 15.029297 15.029297 C 15.420297 14.638297 15.420297 14.006234 15.029297 13.615234 L 10.787109 9.3710938 C 10.591609 9.1755938 10.335828 9.078125 10.080078 9.078125 z M 53.919922 9.078125 C 53.664172 9.078125 53.408391 9.1755937 53.212891 9.3710938 L 48.970703 13.615234 C 48.579703 14.006234 48.579703 14.638297 48.970703 15.029297 C 49.165703 15.225297 49.421734 15.322266 49.677734 15.322266 C 49.933734 15.322266 50.189766 15.224297 50.384766 15.029297 L 54.626953 10.785156 C 55.017953 10.394156 55.017953 9.7620938 54.626953 9.3710938 C 54.431453 9.1755938 54.175672 9.078125 53.919922 9.078125 z M 32 10 C 19.869 10 10 19.869 10 32 C 10 44.131 19.869 54 32 54 C 44.131 54 54 44.131 54 32 C 54 19.869 44.131 10 32 10 z M 32 12 C 43.028 12 52 20.972 52 32 C 52 43.028 43.028 52 32 52 C 20.972 52 12 43.028 12 32 C 12 20.972 20.972 12 32 12 z M 32 16 C 28.002 16 24.174656 17.483781 21.222656 20.175781 C 20.814656 20.547781 20.78325 21.178891 21.15625 21.587891 C 21.35325 21.803891 21.624484 21.914062 21.896484 21.914062 C 22.137484 21.914062 22.378312 21.827344 22.570312 21.652344 C 25.152313 19.296344 28.502 18 32 18 C 33.757 18 35.470797 18.320125 37.091797 18.953125 C 37.603797 19.152125 38.185719 18.901719 38.386719 18.386719 C 38.587719 17.871719 38.331359 17.292797 37.818359 17.091797 C 35.963359 16.367797 34.007 16 32 16 z M 41.351562 19.359375 C 41.097188 19.38575 40.852734 19.510109 40.677734 19.724609 C 40.329734 20.152609 40.395219 20.782859 40.824219 21.130859 C 41.359219 21.565859 41.869844 22.046547 42.339844 22.560547 C 42.536844 22.776547 42.808125 22.886719 43.078125 22.886719 C 43.319125 22.886719 43.561906 22.799047 43.753906 22.623047 C 44.160906 22.250047 44.189406 21.618938 43.816406 21.210938 C 43.278406 20.623938 42.696937 20.074125 42.085938 19.578125 C 41.871437 19.404125 41.605937 19.333 41.351562 19.359375 z M 5.0957031 20.134766 C 4.7061719 20.141328 4.3388437 20.377719 4.1835938 20.761719 C 3.9775937 21.274719 4.2253281 21.8555 4.7363281 22.0625 L 8.4453125 23.5625 C 8.5683125 23.6115 8.6953125 23.634766 8.8203125 23.634766 C 9.2163125 23.634766 9.5890937 23.398766 9.7460938 23.009766 C 9.9530938 22.497766 9.7073125 21.914031 9.1953125 21.707031 L 5.4863281 20.207031 C 5.3585781 20.155531 5.2255469 20.132578 5.0957031 20.134766 z M 58.904297 20.134766 C 58.774359 20.132656 58.641922 20.155531 58.513672 20.207031 L 54.804688 21.707031 C 54.292687 21.915031 54.046906 22.497766 54.253906 23.009766 C 54.410906 23.399766 54.783688 23.634766 55.179688 23.634766 C 55.304688 23.634766 55.431688 23.6115 55.554688 23.5625 L 59.263672 22.0625 C 59.775672 21.8555 60.023406 21.273719 59.816406 20.761719 C 59.661156 20.376969 59.294109 20.141094 58.904297 20.134766 z M 1 31 C 0.447 31 0 31.448 0 32 C 0 32.552 0.447 33 1 33 L 7 33 C 7.553 33 8 32.552 8 32 C 8 31.448 7.553 31 7 31 L 1 31 z M 57 31 C 56.447 31 56 31.448 56 32 C 56 32.552 56.447 33 57 33 L 63 33 C 63.553 33 64 32.552 64 32 C 64 31.448 63.553 31 63 31 L 57 31 z M 20.029297 36.080078 C 19.899625 36.080281 19.768578 36.104203 19.642578 36.158203 L 17.800781 36.939453 C 17.291781 37.155453 17.055484 37.743953 17.271484 38.251953 C 17.433484 38.632953 17.802406 38.861328 18.191406 38.861328 C 18.322406 38.861328 18.455031 38.83525 18.582031 38.78125 L 20.423828 38 C 20.932828 37.784 21.169125 37.197453 20.953125 36.689453 C 20.790375 36.307703 20.418313 36.079469 20.029297 36.080078 z M 22.808594 40.191406 C 22.552719 40.191531 22.296563 40.289375 22.101562 40.484375 L 20.6875 41.898438 C 20.2965 42.289437 20.2965 42.9215 20.6875 43.3125 C 20.8825 43.5075 21.138531 43.605469 21.394531 43.605469 C 21.650531 43.605469 21.906562 43.5075 22.101562 43.3125 L 23.515625 41.898438 C 23.906625 41.507438 23.906625 40.875375 23.515625 40.484375 C 23.320125 40.288875 23.064469 40.191281 22.808594 40.191406 z M 8.8359375 40.365234 C 8.706 40.363031 8.5735625 40.3865 8.4453125 40.4375 L 4.7363281 41.9375 C 4.2243281 42.1445 3.9765937 42.726281 4.1835938 43.238281 C 4.3405938 43.628281 4.7153281 43.865234 5.1113281 43.865234 C 5.2363281 43.865234 5.3633281 43.841969 5.4863281 43.792969 L 9.1953125 42.292969 C 9.7073125 42.084969 9.9530938 41.502234 9.7460938 40.990234 C 9.5908437 40.605484 9.22575 40.371844 8.8359375 40.365234 z M 55.166016 40.367188 C 54.776484 40.374031 54.409156 40.606234 54.253906 40.990234 C 54.046906 41.502234 54.292688 42.085969 54.804688 42.292969 L 58.513672 43.792969 C 58.636672 43.841969 58.763672 43.865234 58.888672 43.865234 C 59.284672 43.865234 59.659406 43.627281 59.816406 43.238281 C 60.022406 42.725281 59.774672 42.1445 59.263672 41.9375 L 55.554688 40.4375 C 55.426938 40.3865 55.295859 40.364906 55.166016 40.367188 z M 27.115234 43.054688 C 26.726547 43.061531 26.358375 43.295688 26.203125 43.679688 L 25.453125 45.533203 C 25.246125 46.045203 25.494812 46.628937 26.007812 46.835938 C 26.129812 46.884937 26.255859 46.908203 26.380859 46.908203 C 26.776859 46.908203 27.151594 46.67025 27.308594 46.28125 L 28.056641 44.427734 C 28.263641 43.915734 28.016906 43.333953 27.503906 43.126953 C 27.377156 43.075953 27.244797 43.052406 27.115234 43.054688 z M 36.884766 43.054688 C 36.755156 43.052406 36.623094 43.075953 36.496094 43.126953 C 35.983094 43.333953 35.736359 43.915734 35.943359 44.427734 L 36.691406 46.28125 C 36.848406 46.67025 37.223141 46.908203 37.619141 46.908203 C 37.744141 46.908203 37.870187 46.884938 37.992188 46.835938 C 38.505187 46.628937 38.753875 46.045203 38.546875 45.533203 L 37.796875 43.679688 C 37.641625 43.295687 37.273594 43.061531 36.884766 43.054688 z M 32 44 C 31.447 44 31 44.448 31 45 L 31 47 C 31 47.552 31.447 48 32 48 C 32.553 48 33 47.552 33 47 L 33 45 C 33 44.448 32.553 44 32 44 z M 14.322266 48.677734 C 14.066516 48.677734 13.810734 48.775203 13.615234 48.970703 L 9.3730469 53.214844 C 8.9820469 53.605844 8.9820469 54.237906 9.3730469 54.628906 C 9.5680469 54.823906 9.8240781 54.921875 10.080078 54.921875 C 10.336078 54.921875 10.592109 54.823906 10.787109 54.628906 L 15.029297 50.384766 C 15.420297 49.993766 15.420297 49.361703 15.029297 48.970703 C 14.833797 48.775203 14.578016 48.677734 14.322266 48.677734 z M 49.677734 48.677734 C 49.421984 48.677734 49.166203 48.775203 48.970703 48.970703 C 48.579703 49.361703 48.579703 49.993766 48.970703 50.384766 L 53.212891 54.628906 C 53.407891 54.823906 53.663922 54.921875 53.919922 54.921875 C 54.175922 54.921875 54.431953 54.823906 54.626953 54.628906 C 55.017953 54.237906 55.017953 53.605844 54.626953 53.214844 L 50.384766 48.970703 C 50.189266 48.775203 49.933484 48.677734 49.677734 48.677734 z M 22.619141 54.179688 C 22.229563 54.186391 21.863031 54.420687 21.707031 54.804688 L 20.210938 58.513672 C 20.003937 59.025672 20.249719 59.607453 20.761719 59.814453 C 20.884719 59.863453 21.011719 59.888672 21.136719 59.888672 C 21.532719 59.888672 21.907453 59.650719 22.064453 59.261719 L 23.5625 55.554688 C 23.7695 55.042687 23.520766 54.458953 23.009766 54.251953 C 22.881516 54.200703 22.749 54.177453 22.619141 54.179688 z M 41.380859 54.179688 C 41.250891 54.177531 41.118234 54.200703 40.990234 54.251953 C 40.478234 54.458953 40.2305 55.042687 40.4375 55.554688 L 41.935547 59.261719 C 42.092547 59.651719 42.467281 59.888672 42.863281 59.888672 C 42.988281 59.888672 43.115281 59.863453 43.238281 59.814453 C 43.750281 59.607453 43.996062 59.025672 43.789062 58.513672 L 42.292969 54.804688 C 42.138469 54.419938 41.770766 54.186156 41.380859 54.179688 z M 32 56 C 31.447 56 31 56.448 31 57 L 31 63 C 31 63.552 31.447 64 32 64 C 32.553 64 33 63.552 33 63 L 33 57 C 33 56.448 32.553 56 32 56 z"/>
</svg>